<svg width="241" height="107" viewBox="0 0 241 107" fill="none" xmlns="http://www.w3.org/2000/svg">
<path d="M0.15625 99H1.92188L2.35938 96.8281H2.40625C2.71875 97.5156 3.27604 98.1042 4.07812 98.5938C4.88021 99.0729 5.875 99.3125 7.0625 99.3125C9.05208 99.3125 10.75 98.5677 12.1562 97.0781C13.5729 95.5885 14.4896 93.6927 14.9062 91.3906L14.9844 90.9219C15.3906 88.6302 15.1458 86.7604 14.25 85.3125C13.3542 83.8542 11.9167 83.125 9.9375 83.125C8.76042 83.125 7.70833 83.3438 6.78125 83.7812C5.86458 84.2188 5.09375 84.776 4.46875 85.4531L6.21875 75.5H4.3125L0.15625 99ZM2.8125 94.8281L4.09375 87.5938C4.57292 86.8542 5.26042 86.1979 6.15625 85.625C7.05208 85.0521 8.0625 84.7656 9.1875 84.7656C10.8542 84.7656 11.9896 85.3385 12.5938 86.4844C13.1979 87.6302 13.3385 89.1042 13.0156 90.9062L12.9375 91.3906C12.6146 93.2135 11.9427 94.7135 10.9219 95.8906C9.91146 97.0677 8.58854 97.6562 6.95312 97.6562C5.79688 97.6562 4.875 97.3698 4.1875 96.7969C3.51042 96.224 3.05208 95.5677 2.8125 94.8281ZM15.6469 105.516C15.9073 105.609 16.1781 105.682 16.4594 105.734C16.7406 105.786 17.0792 105.812 17.475 105.812C18.5688 105.812 19.5427 105.406 20.3969 104.594C21.251 103.792 22.1677 102.5 23.1469 100.719L32.6469 83.4375H30.6469L24.5844 94.8281C24.3969 95.1927 24.2198 95.5365 24.0531 95.8594C23.8865 96.1719 23.7354 96.4792 23.6 96.7812H23.5063C23.475 96.4792 23.4333 96.1719 23.3813 95.8594C23.3292 95.5365 23.2719 95.1979 23.2094 94.8438L20.9594 83.4375H19.0375L22.3188 98.9844V99C21.1729 101.125 20.2823 102.51 19.6469 103.156C19.0115 103.802 18.3448 104.125 17.6469 104.125C17.3552 104.125 17.0635 104.099 16.7719 104.047C16.4698 104.005 16.1938 103.943 15.9438 103.859L15.6469 105.516ZM42.1437 99H44.0656L46.0656 87.6875C46.6594 86.8333 47.3625 86.1406 48.175 85.6094C48.9875 85.0677 49.8833 84.7969 50.8625 84.7969C51.9667 84.7969 52.7792 85.0885 53.3 85.6719C53.8312 86.2552 53.9771 87.224 53.7375 88.5781L51.9094 99H53.8312L55.8312 87.6875C56.3937 86.8646 57.0865 86.1771 57.9094 85.625C58.7323 85.0729 59.6385 84.7969 60.6281 84.7969C61.7323 84.7969 62.5448 85.0938 63.0656 85.6875C63.5865 86.2812 63.7271 87.276 63.4875 88.6719L61.6594 99H63.5812L65.4094 88.6875C65.7531 86.6979 65.55 85.276 64.8 84.4219C64.0604 83.5573 62.9354 83.125 61.425 83.125C60.3 83.125 59.2583 83.3646 58.3 83.8438C57.3417 84.3229 56.4927 85.0156 55.7531 85.9219H55.7062C55.55 84.9844 55.1229 84.2865 54.425 83.8281C53.7375 83.3594 52.8417 83.125 51.7375 83.125C50.675 83.1146 49.6906 83.3438 48.7844 83.8125C47.8781 84.2812 47.0656 84.9219 46.3469 85.7344H46.3156L46.6437 83.4375H44.8937L42.1437 99ZM69.6656 91.4375C69.249 93.8125 69.5615 95.7344 70.6031 97.2031C71.6448 98.6719 73.2594 99.4062 75.4469 99.4062C77.624 99.4062 79.4938 98.6719 81.0563 97.2031C82.6188 95.7344 83.6083 93.8125 84.025 91.4375L84.1031 90.9844C84.5198 88.6198 84.2073 86.7031 83.1656 85.2344C82.1344 83.7656 80.525 83.0312 78.3375 83.0312C76.1396 83.0312 74.2646 83.7656 72.7125 85.2344C71.1604 86.6927 70.176 88.6094 69.7594 90.9844L69.6656 91.4375ZM71.7125 90.9688C72.0354 89.1458 72.7385 87.6406 73.8219 86.4531C74.9156 85.2656 76.3167 84.6719 78.025 84.6719C79.7438 84.6719 80.9365 85.2656 81.6031 86.4531C82.2802 87.6406 82.4625 89.1458 82.15 90.9688L82.0563 91.4688C81.7333 93.2812 81.0198 94.7812 79.9156 95.9688C78.8219 97.1562 77.426 97.75 75.7281 97.75C74.0406 97.75 72.8531 97.1562 72.1656 95.9688C71.4885 94.7812 71.3115 93.2812 71.6344 91.4688L71.7125 90.9688ZM87.5938 99H89.5156L91.5156 87.6719C92.0885 86.8385 92.8125 86.151 93.6875 85.6094C94.5625 85.0677 95.5104 84.7969 96.5312 84.7969C97.7188 84.7969 98.5833 85.1042 99.125 85.7188C99.6667 86.3229 99.8177 87.3229 99.5781 88.7188L97.7656 99H99.6875L101.5 88.6875C101.854 86.6875 101.651 85.2604 100.891 84.4062C100.13 83.5521 98.9688 83.125 97.4062 83.125C96.3021 83.125 95.2656 83.3594 94.2969 83.8281C93.3281 84.2865 92.5 84.9167 91.8125 85.7188H91.7656L92.0938 83.4375H90.3438L87.5938 99ZM105.772 85H114.491L114.756 83.4375H106.053L105.772 85ZM106.944 94.9844C106.662 96.5781 106.782 97.7135 107.303 98.3906C107.834 99.0677 108.647 99.4062 109.741 99.4062C110.189 99.4062 110.6 99.3698 110.975 99.2969C111.36 99.224 111.668 99.1406 111.897 99.0469L112.194 97.3906C111.933 97.4948 111.662 97.5729 111.381 97.625C111.1 97.6771 110.808 97.7031 110.506 97.7031C109.798 97.7031 109.303 97.5104 109.022 97.125C108.741 96.7396 108.683 96.0365 108.85 95.0156L111.725 78.75H109.803L108.881 84.0156L108.819 84.3125L106.944 94.9844ZM116.716 91.4375C116.299 93.8125 116.585 95.7344 117.575 97.2031C118.565 98.6719 120.221 99.4062 122.544 99.4062C124.002 99.4062 125.278 99.1146 126.372 98.5312C127.466 97.9375 128.309 97.2865 128.903 96.5781L127.841 95.4844C127.257 96.1302 126.544 96.6719 125.7 97.1094C124.867 97.5469 123.908 97.7656 122.825 97.7656C121.054 97.7656 119.835 97.1719 119.169 95.9844C118.502 94.7969 118.33 93.2865 118.653 91.4531L118.747 90.9531C119.07 89.1198 119.752 87.6146 120.794 86.4375C121.846 85.2604 123.184 84.6719 124.809 84.6719C126.309 84.6719 127.33 85.1406 127.872 86.0781C128.424 87.0156 128.58 88.1823 128.341 89.5781L128.294 89.7969H118.137L117.856 91.3906H129.95L130.106 90.5312C130.512 88.2083 130.289 86.3802 129.434 85.0469C128.58 83.7031 127.122 83.0312 125.059 83.0312C122.986 83.0312 121.195 83.7656 119.684 85.2344C118.184 86.7031 117.226 88.6198 116.809 90.9844L116.716 91.4375ZM133.659 91.4375C133.243 93.8438 133.524 95.776 134.503 97.2344C135.493 98.6823 137.066 99.4062 139.222 99.4062C141.253 99.4062 142.889 98.8594 144.128 97.7656C145.368 96.6719 146.113 95.3854 146.363 93.9062L146.394 93.75H144.519L144.488 93.9062C144.3 95.0104 143.79 95.9323 142.956 96.6719C142.133 97.401 140.988 97.7656 139.519 97.7656C137.863 97.7656 136.717 97.1771 136.081 96C135.446 94.8125 135.29 93.3021 135.613 91.4688L135.706 90.9531C136.04 89.0885 136.727 87.5781 137.769 86.4219C138.81 85.2552 140.165 84.6719 141.831 84.6719C143.29 84.6719 144.3 85.0417 144.863 85.7812C145.425 86.5104 145.613 87.4115 145.425 88.4844L145.394 88.6406H147.284L147.3 88.4844C147.56 87.0156 147.269 85.7396 146.425 84.6562C145.592 83.5729 144.154 83.0312 142.113 83.0312C139.946 83.0312 138.113 83.7552 136.613 85.2031C135.123 86.651 134.17 88.5781 133.753 90.9844L133.659 91.4375ZM150.541 91.4375C150.124 93.8125 150.436 95.7344 151.478 97.2031C152.52 98.6719 154.134 99.4062 156.322 99.4062C158.499 99.4062 160.369 98.6719 161.931 97.2031C163.494 95.7344 164.483 93.8125 164.9 91.4375L164.978 90.9844C165.395 88.6198 165.082 86.7031 164.041 85.2344C163.009 83.7656 161.4 83.0312 159.212 83.0312C157.015 83.0312 155.14 83.7656 153.587 85.2344C152.035 86.6927 151.051 88.6094 150.634 90.9844L150.541 91.4375ZM152.587 90.9688C152.91 89.1458 153.614 87.6406 154.697 86.4531C155.791 85.2656 157.192 84.6719 158.9 84.6719C160.619 84.6719 161.811 85.2656 162.478 86.4531C163.155 87.6406 163.337 89.1458 163.025 90.9688L162.931 91.4688C162.608 93.2812 161.895 94.7812 160.791 95.9688C159.697 97.1562 158.301 97.75 156.603 97.75C154.916 97.75 153.728 97.1562 153.041 95.9688C152.364 94.7812 152.186 93.2812 152.509 91.4688L152.587 90.9688ZM168.469 99H170.391L172.391 87.6719C172.911 86.8594 173.578 86.1927 174.391 85.6719C175.203 85.1406 176.073 84.875 177 84.875C177.292 84.875 177.557 84.8906 177.797 84.9219C178.047 84.9531 178.266 84.9896 178.453 85.0312L178.781 83.2344C178.677 83.1927 178.495 83.151 178.234 83.1094C177.984 83.0573 177.74 83.0312 177.5 83.0312C176.5 83.0312 175.589 83.2917 174.766 83.8125C173.953 84.3229 173.26 84.9375 172.688 85.6562H172.641L172.969 83.4375H171.219L168.469 99ZM179.272 94.5781C179.001 96.1198 179.282 97.2865 180.116 98.0781C180.949 98.8698 182.126 99.2656 183.647 99.2656C185.043 99.2656 186.235 98.9896 187.225 98.4375C188.225 97.875 188.975 97.2344 189.475 96.5156C189.433 96.974 189.433 97.4323 189.475 97.8906C189.517 98.349 189.59 98.7188 189.694 99H191.538L191.569 98.7812C191.454 98.3333 191.397 97.8073 191.397 97.2031C191.397 96.5885 191.454 95.9375 191.569 95.25L192.819 88.2031C193.131 86.4323 192.871 85.1302 192.038 84.2969C191.215 83.4531 189.902 83.0312 188.1 83.0312C186.288 83.0312 184.772 83.4635 183.553 84.3281C182.345 85.1927 181.631 86.2344 181.413 87.4531L181.366 87.7812H183.272L183.319 87.5156C183.465 86.6927 183.902 86.0104 184.631 85.4688C185.371 84.9167 186.418 84.6406 187.772 84.6406C189.126 84.6406 190.032 84.9583 190.491 85.5938C190.959 86.2188 191.095 87.0938 190.897 88.2188L190.647 89.6562H186.663C184.715 89.6562 183.064 90.0938 181.709 90.9688C180.355 91.8333 179.543 93.0365 179.272 94.5781ZM181.209 94.4844C181.386 93.4427 181.939 92.625 182.866 92.0312C183.793 91.4271 185.058 91.125 186.663 91.125H190.381L189.913 93.7344C189.735 94.724 189.084 95.625 187.959 96.4375C186.834 97.25 185.631 97.6562 184.35 97.6562C183.121 97.6562 182.246 97.3854 181.725 96.8438C181.204 96.3021 181.032 95.5156 181.209 94.4844ZM196.841 99H198.747L202.903 75.5H200.981L196.841 99Z" fill="white"/>
<path d="M3.96875 59H9.8125V26.375C9.8125 25.6875 9.79167 24.8438 9.75 23.8438C9.70833 22.8229 9.67708 22.125 9.65625 21.75H9.84375C9.88542 22.1458 10.0312 22.8438 10.2812 23.8438C10.5521 24.8438 10.8125 25.6875 11.0625 26.375L22.6562 59H28.375L39.9062 26.375C40.1354 25.6667 40.3646 24.8958 40.5938 24.0625C40.8438 23.2292 41.0417 22.4583 41.1875 21.75H41.375C41.3125 22.4375 41.2708 23.2083 41.25 24.0625C41.2292 24.9167 41.2188 25.6875 41.2188 26.375V59H47.4062V13.5H38.8438L26.9688 46.7812C26.7188 47.4896 26.4896 48.1875 26.2812 48.875C26.0729 49.5625 25.8958 50.2812 25.75 51.0312H25.5938C25.4479 50.2812 25.2708 49.5625 25.0625 48.875C24.8542 48.1875 24.6354 47.4896 24.4062 46.7812L12.4688 13.5H3.96875V59ZM58.5438 59H64.1375V27.1562C64.1375 26.4479 64.1271 25.7188 64.1063 24.9688C64.1063 24.1979 64.0854 23.4583 64.0438 22.75H64.2313C64.4396 23.3958 64.6792 24.0625 64.95 24.75C65.2208 25.4167 65.5229 26.0625 65.8563 26.6875L83.2 59H89.7V13.5H84.1063V45.25C84.1063 45.9583 84.1063 46.6875 84.1063 47.4375C84.1271 48.1875 84.1479 48.9167 84.1688 49.625H83.9813C83.7938 48.9792 83.5646 48.3229 83.2938 47.6562C83.0229 46.9688 82.7104 46.2917 82.3563 45.625L65.1688 13.5H58.5438V59ZM97.15 18.6875H110.181V59H116.494V18.6875H129.494V13.5H97.15V18.6875ZM134.788 37.5312C134.788 45.0521 136.319 50.625 139.381 54.25C142.465 57.875 146.683 59.6875 152.038 59.6875C157.121 59.6875 160.985 58.3646 163.631 55.7188C166.277 53.0521 167.642 49.5312 167.725 45.1562V43.5312H161.569L161.538 44.875C161.496 48.1667 160.694 50.6458 159.131 52.3125C157.59 53.9792 155.298 54.8125 152.256 54.8125C148.902 54.8125 146.235 53.4479 144.256 50.7188C142.298 47.9896 141.319 43.8958 141.319 38.4375V34.0625C141.319 28.4792 142.277 24.3542 144.194 21.6875C146.11 19.0208 148.756 17.6875 152.131 17.6875C155.277 17.6875 157.631 18.5312 159.194 20.2188C160.777 21.9062 161.569 24.3125 161.569 27.4375V29.0312H167.725V27.7188C167.725 23.0312 166.371 19.375 163.663 16.75C160.954 14.125 157.1 12.8125 152.1 12.8125C147.017 12.8125 142.86 14.5938 139.631 18.1562C136.402 21.7188 134.788 27.3229 134.788 34.9688V37.5312ZM177.269 59H183.55V40.6562H191.425C195.758 40.6562 199.123 39.3958 201.519 36.875C203.915 34.3333 205.113 31.0208 205.113 26.9375C205.113 22.8958 203.935 19.6458 201.581 17.1875C199.227 14.7292 195.852 13.5 191.456 13.5H177.269V59ZM183.55 35.9688V18.4062H190.769C193.748 18.4271 195.831 19.2396 197.019 20.8438C198.206 22.4479 198.8 24.5417 198.8 27.125C198.8 29.7083 198.206 31.8333 197.019 33.5C195.831 35.1458 193.748 35.9688 190.769 35.9688H183.55ZM200.019 59H206.988L195.863 37.2188L189.769 38.2812L200.019 59ZM214.406 59H239.406V53.8125H220.688V13.5H214.406V59Z" fill="#FF8E3C"/>
</svg>
