<svg width="101" height="135" viewBox="0 0 101 135" fill="none" xmlns="http://www.w3.org/2000/svg">
<path d="M42.4899 134.914C29.8721 134.003 17.4011 130.822 9.75275 126.564C5.39624 124.139 2.0772 121.158 0.774781 118.501L-0.00012207 116.921V67.3407V17.7608L0.613054 16.5139C3.35324 10.9423 12.0984 5.9194 24.3062 2.90562C28.4502 1.88252 34.4325 0.86366 39.3131 0.349889C44.2967 -0.174875 57.5062 -0.0950363 62.4774 0.490671C75.6899 2.04529 86.933 5.52571 93.8616 10.2062C96.5336 12.0111 99.2754 14.8992 100.204 16.8872L101.001 18.5916L100.932 68.0215L100.864 117.452L100.225 118.752C99.8735 119.468 98.8115 120.875 97.8651 121.88C92.1038 127.996 79.7459 132.521 63.5365 134.449C60.2327 134.842 45.8797 135.159 42.4901 134.915L42.4899 134.914ZM65.7425 92.4306C65.694 92.3039 63.8078 90.621 61.5509 88.6907C59.294 86.7603 57.3502 85.0902 57.2314 84.9794C57.1126 84.8685 57.5296 84.476 58.158 84.107C58.7865 83.7381 59.9905 82.7116 60.8337 81.8261C63.2995 79.2366 64.4629 76.0379 64.4629 71.8479C64.4629 67.7231 63.2082 64.395 60.695 61.8545C58.1621 59.2938 55.2538 58.1935 51.0187 58.1935C44.4905 58.1935 39.4768 62.0084 37.8766 68.1934C37.3261 70.3208 37.329 74.6195 37.8823 76.5059C39.3254 81.4263 43.2558 85 48.1474 85.8391C49.8027 86.1231 50.0269 86.2455 51.1555 87.4812C51.8262 88.2156 53.2024 89.6814 54.2139 90.7386L56.053 92.6608H60.9419C63.6308 92.6608 65.791 92.5573 65.7425 92.4306ZM48.9765 78.7214C47.7995 78.1068 47.3546 77.6298 46.6834 76.2634C46.165 75.208 46.0764 74.6077 46.0706 72.1131C46.0648 69.5784 46.1453 69.0307 46.6866 67.93C47.5721 66.129 48.7924 65.2763 50.6801 65.1396C53.3078 64.9487 54.8246 66.2403 55.6195 69.3441C56.5942 73.1496 55.5224 77.1954 53.184 78.5381C51.9572 79.2426 50.1272 79.3223 48.9765 78.7214ZM27.3066 85.7851C32.4324 84.8116 35.3421 81.8262 35.3421 77.5406C35.3421 73.7387 33.4635 71.5234 28.2717 69.2021C25.2996 67.8734 24.2231 67.0393 24.2231 66.0648C24.2231 65.2571 25.2447 64.372 26.434 64.1497C27.5952 63.9325 30.6751 64.4682 32.4939 65.204L34.0184 65.8208V62.4412V59.0614L32.3637 58.6938C31.3411 58.4666 29.1923 58.3303 26.7381 58.3372C23.2617 58.3372 22.581 58.422 21.2727 58.9424C17.4513 60.4617 15.6379 63.0498 15.667 66.943C15.6941 70.5877 17.6139 72.8611 22.3919 74.9063C25.2111 76.113 26.3411 77.0319 26.3411 78.1178C26.3411 80.4253 22.502 80.7093 18.4373 78.7025C17.3242 78.1528 16.3241 77.6584 16.2149 77.6036C16.1057 77.5489 16.0164 79.1276 16.0164 81.112C16.0164 84.7037 16.0202 84.7211 16.6695 84.9687C19.1147 85.8997 24.5191 86.3145 27.3066 85.7851ZM85.9066 82.4532V79.4042H81.2737H76.6407V68.9314V58.4587H72.5374H68.434V71.9805V85.5022H77.1702H85.9066V82.4532ZM57.3151 29.0221C65.4693 28.4557 71.5817 27.3863 76.9604 25.5852C82.3189 23.7908 85.4843 21.6197 86.1924 19.2529C86.4652 18.3409 86.4456 17.995 86.0644 16.995C84.3549 12.512 74.8051 9.06773 60.2123 7.67126C53.9701 7.07378 42.6179 7.26747 36.6661 8.07265C27.5845 9.30154 20.2143 11.5841 16.9373 14.1829C10.3081 19.4402 17.3185 25.2225 33.6214 27.9441C40.6902 29.1242 49.8486 29.5409 57.3152 29.0221H57.3151Z" fill="#EEE7CE"/>
</svg>
